<?xml version="1.0" encoding="utf-8"?>
<!-- Generator: Adobe Illustrator 25.0.0, SVG Export Plug-In . SVG Version: 6.00 Build 0)  -->
<svg version="1.1" id="Layer_1" xmlns="http://www.w3.org/2000/svg" xmlns:xlink="http://www.w3.org/1999/xlink" x="0px" y="0px"
	 viewBox="0 0 1920 1080" style="enable-background:new 0 0 1920 1080;" xml:space="preserve">
<style type="text/css">
	.st0{fill:url(#SVGID_1_);}
	.st1{fill:url(#SVGID_2_);}
	.st2{fill:url(#SVGID_3_);}
	.st3{fill:url(#SVGID_4_);}
	.st4{fill:url(#SVGID_5_);}
	.st5{fill:url(#SVGID_6_);}
</style>
<g>
	<linearGradient id="SVGID_1_" gradientUnits="userSpaceOnUse" x1="494" y1="540.5" x2="1179" y2="540.5">
		<stop  offset="0" style="stop-color:#00B7D1"/>
		<stop  offset="0.0464" style="stop-color:#02B1CE"/>
		<stop  offset="0.4833" style="stop-color:#1280B8"/>
		<stop  offset="0.8148" style="stop-color:#1C61AA"/>
		<stop  offset="1" style="stop-color:#2055A5"/>
	</linearGradient>
	<polygon class="st0" points="562,636.5 817,435.5 1179,720.5 1179,665.5 817,379.5 675,491.5 673,360.5 623,360.5 625,532.5 
		494,635.5 	"/>
	<linearGradient id="SVGID_2_" gradientUnits="userSpaceOnUse" x1="762" y1="521" x2="801" y2="521">
		<stop  offset="0" style="stop-color:#00B7D1"/>
		<stop  offset="0.0464" style="stop-color:#02B1CE"/>
		<stop  offset="0.4833" style="stop-color:#1280B8"/>
		<stop  offset="0.8148" style="stop-color:#1C61AA"/>
		<stop  offset="1" style="stop-color:#2055A5"/>
	</linearGradient>
	<rect x="762" y="501.5" class="st1" width="39" height="39"/>
	<linearGradient id="SVGID_3_" gradientUnits="userSpaceOnUse" x1="827" y1="521" x2="866" y2="521">
		<stop  offset="0" style="stop-color:#00B7D1"/>
		<stop  offset="0.0464" style="stop-color:#02B1CE"/>
		<stop  offset="0.4833" style="stop-color:#1280B8"/>
		<stop  offset="0.8148" style="stop-color:#1C61AA"/>
		<stop  offset="1" style="stop-color:#2055A5"/>
	</linearGradient>
	<rect x="827" y="501.5" class="st2" width="39" height="39"/>
	<linearGradient id="SVGID_4_" gradientUnits="userSpaceOnUse" x1="827" y1="580" x2="866" y2="580">
		<stop  offset="0" style="stop-color:#00B7D1"/>
		<stop  offset="0.0464" style="stop-color:#02B1CE"/>
		<stop  offset="0.4833" style="stop-color:#1280B8"/>
		<stop  offset="0.8148" style="stop-color:#1C61AA"/>
		<stop  offset="1" style="stop-color:#2055A5"/>
	</linearGradient>
	<rect x="827" y="560.5" class="st3" width="39" height="39"/>
	<linearGradient id="SVGID_5_" gradientUnits="userSpaceOnUse" x1="762" y1="580" x2="801" y2="580">
		<stop  offset="0" style="stop-color:#00B7D1"/>
		<stop  offset="0.0464" style="stop-color:#02B1CE"/>
		<stop  offset="0.4833" style="stop-color:#1280B8"/>
		<stop  offset="0.8148" style="stop-color:#1C61AA"/>
		<stop  offset="1" style="stop-color:#2055A5"/>
	</linearGradient>
	<rect x="762" y="560.5" class="st4" width="39" height="39"/>
	<linearGradient id="SVGID_6_" gradientUnits="userSpaceOnUse" x1="496.8693" y1="727.3773" x2="1213" y2="727.3773">
		<stop  offset="0" style="stop-color:#00B7D1"/>
		<stop  offset="0.0464" style="stop-color:#02B1CE"/>
		<stop  offset="0.4833" style="stop-color:#1280B8"/>
		<stop  offset="0.8148" style="stop-color:#1C61AA"/>
		<stop  offset="1" style="stop-color:#2055A5"/>
	</linearGradient>
	<path class="st5" d="M524.31,665.59c68.72-10.97,257.09-23.2,425.69,20.91c107,28,210.9,76.74,263,113
		c-363.11-192.89-607.13-89.28-684.03-89.89C493.85,709.34,481,669.5,524.31,665.59z"/>
</g>
</svg>
